<svg width="17" height="17" viewBox="0 0 17 17" fill="none" xmlns="http://www.w3.org/2000/svg">
<path d="M11.0877 2.77555C11.8607 2.77786 12.6015 3.08598 13.1481 3.63262C13.6947 4.17926 14.0029 4.92 14.0052 5.69306V11.5275C14.0029 12.3005 13.6947 13.0413 13.1481 13.5879C12.6015 14.1345 11.8607 14.4427 11.0877 14.445H5.25327C4.48021 14.4427 3.73947 14.1345 3.19283 13.5879C2.64619 13.0413 2.33807 12.3005 2.33576 11.5275V5.69306C2.33807 4.92 2.64619 4.17926 3.19283 3.63262C3.73947 3.08598 4.48021 2.77786 5.25327 2.77555H11.0877ZM11.0877 1.60873H5.25327C3.00685 1.60873 1.16895 3.44663 1.16895 5.69306V11.5275C1.16895 13.7739 3.00685 15.6118 5.25327 15.6118H11.0877C13.3341 15.6118 15.172 13.7739 15.172 11.5275V5.69306C15.172 3.44663 13.3341 1.60873 11.0877 1.60873Z" fill="black"/>
<path d="M11.9651 5.69805C11.7915 5.69805 11.6218 5.64658 11.4775 5.55013C11.3331 5.45369 11.2206 5.31661 11.1542 5.15623C11.0878 4.99586 11.0704 4.81938 11.1043 4.64912C11.1381 4.47887 11.2217 4.32248 11.3445 4.19973C11.4672 4.07698 11.6236 3.99339 11.7939 3.95952C11.9641 3.92566 12.1406 3.94304 12.301 4.00947C12.4614 4.0759 12.5984 4.1884 12.6949 4.33273C12.7913 4.47707 12.8428 4.64676 12.8428 4.82035C12.843 4.93569 12.8205 5.04993 12.7765 5.15653C12.7325 5.26313 12.6678 5.35998 12.5863 5.44153C12.5047 5.52308 12.4079 5.58773 12.3013 5.63175C12.1947 5.67577 12.0804 5.6983 11.9651 5.69805Z" fill="black"/>
<path d="M8.17044 6.27525C8.63205 6.27525 9.0833 6.41213 9.46711 6.66859C9.85093 6.92504 10.1501 7.28956 10.3267 7.71603C10.5034 8.1425 10.5496 8.61178 10.4595 9.06452C10.3695 9.51726 10.1472 9.93313 9.82079 10.2595C9.49438 10.5859 9.07851 10.8082 8.62577 10.8983C8.17303 10.9883 7.70375 10.9421 7.27728 10.7655C6.85081 10.5888 6.48629 10.2897 6.22984 9.90586C5.97338 9.52205 5.8365 9.0708 5.8365 8.60919C5.83716 7.99039 6.08327 7.39713 6.52082 6.95957C6.95838 6.52202 7.55164 6.27591 8.17044 6.27525ZM8.17044 5.10843C7.47806 5.10843 6.80122 5.31374 6.22552 5.69841C5.64982 6.08308 5.20112 6.62983 4.93616 7.26951C4.67119 7.90919 4.60187 8.61307 4.73695 9.29216C4.87202 9.97124 5.20544 10.595 5.69503 11.0846C6.18462 11.5742 6.8084 11.9076 7.48748 12.0427C8.16656 12.1778 8.87044 12.1084 9.51012 11.8435C10.1498 11.5785 10.6965 11.1298 11.0812 10.5541C11.4659 9.97841 11.6712 9.30158 11.6712 8.60919C11.6712 7.68073 11.3024 6.7903 10.6459 6.13378C9.98933 5.47726 9.0989 5.10843 8.17044 5.10843Z" fill="blue"/>
</svg>
