<svg width="16" height="17" viewBox="0 0 16 17" fill="none" xmlns="http://www.w3.org/2000/svg">
<path d="M13.8829 1.64227H2.19627C1.55769 1.64227 0.999756 2.10175 0.999756 2.73282V14.4454C0.999756 15.0799 1.55769 15.6453 2.19627 15.6453H13.8794C14.5214 15.6453 15.0028 15.0761 15.0028 14.4454V2.73282C15.0066 2.10175 14.5214 1.64227 13.8829 1.64227ZM5.34039 13.3145H3.33433V7.07721H5.34039V13.3145ZM4.40675 6.12887H4.39237C3.75035 6.12887 3.33464 5.65096 3.33464 5.0527C3.33464 4.44351 3.76129 3.97684 4.41769 3.97684C5.07408 3.97684 5.47573 4.44007 5.49011 5.0527C5.4898 5.65096 5.07408 6.12887 4.40675 6.12887ZM12.672 13.3145H10.6659V9.90407C10.6659 9.08702 10.374 8.52877 9.6482 8.52877C9.0937 8.52877 8.76551 8.90385 8.61954 9.26925C8.56484 9.40052 8.55015 9.57931 8.55015 9.76185V13.3145H6.54409V7.07721H8.55015V7.94521C8.84209 7.52949 9.29812 6.93124 10.3593 6.93124C11.6761 6.93124 12.6723 7.79924 12.6723 9.67058L12.672 13.3145Z" fill="black"/>
</svg>
